name Walk2.mot
datacolumns 19
datarows 17
range 2.08300000 2.09900000
endheader

                time	   L_ground_force_vx	   L_ground_force_vy	   L_ground_force_vz	   L_ground_force_px	   L_ground_force_py	   L_ground_force_pz	   R_ground_force_vx	   R_ground_force_vy	   R_ground_force_vz	   R_ground_force_px	   R_ground_force_py	   R_ground_force_pz	   L_ground_torque_x	   L_ground_torque_y	   L_ground_torque_z	   R_ground_torque_x	   R_ground_torque_y	   R_ground_torque_z	
          2.08300000	          0.00000000	          0.00000000	          0.00000000	          0.00000000	          0.00000000	          0.00000000	        -29.72295702	        860.47710174	        -66.16560523	          0.39767756	          0.00000000	          0.11118340	          0.00000000	          0.00000000	          0.00000000	          0.00000000	          7.10631348	          0.00000000	
          2.08400000	          0.00000000	          0.00000000	          0.00000000	          0.00000000	          0.00000000	          0.00000000	        -29.50670485	        858.99649955	        -65.94126528	          0.39808739	          0.00000000	          0.11129799	          0.00000000	          0.00000000	          0.00000000	          0.00000000	          7.04525779	          0.00000000	
          2.08500000	          0.00000000	          0.00000000	          0.00000000	          0.00000000	          0.00000000	          0.00000000	        -29.27426946	        857.47538756	        -65.71294411	          0.39849439	          0.00000000	          0.11140637	          0.00000000	          0.00000000	          0.00000000	          0.00000000	          6.99043198	          0.00000000	
          2.08600000	          0.00000000	          0.00000000	          0.00000000	          0.00000000	          0.00000000	          0.00000000	        -29.01638983	        855.94508721	        -65.47807118	          0.39889467	          0.00000000	          0.11150431	          0.00000000	          0.00000000	          0.00000000	          0.00000000	          6.94200103	          0.00000000	
          2.08700000	          0.00000000	          0.00000000	          0.00000000	          0.00000000	          0.00000000	          0.00000000	        -28.73087669	        854.46252736	        -65.22538046	          0.39929013	          0.00000000	          0.11160399	          0.00000000	          0.00000000	          0.00000000	          0.00000000	          6.90120274	          0.00000000	
          2.08800000	          0.00000000	          0.00000000	          0.00000000	          0.00000000	          0.00000000	          0.00000000	        -28.42440964	        853.05790049	        -64.94898992	          0.39968656	          0.00000000	          0.11172216	          0.00000000	          0.00000000	          0.00000000	          0.00000000	          6.86815708	          0.00000000	
          2.08900000	          0.00000000	          0.00000000	          0.00000000	          0.00000000	          0.00000000	          0.00000000	        -28.11522630	        851.71285588	        -64.65052312	          0.40008479	          0.00000000	          0.11185717	          0.00000000	          0.00000000	          0.00000000	          0.00000000	          6.83685626	          0.00000000	
          2.09000000	          0.00000000	          0.00000000	          0.00000000	          0.00000000	          0.00000000	          0.00000000	        -27.82340526	        850.39110198	        -64.33286568	          0.40047714	          0.00000000	          0.11198162	          0.00000000	          0.00000000	          0.00000000	          0.00000000	          6.79783797	          0.00000000	
          2.09100000	          0.00000000	          0.00000000	          0.00000000	          0.00000000	          0.00000000	          0.00000000	        -27.55461001	        849.07315613	        -64.00318865	          0.40085604	          0.00000000	          0.11206878	          0.00000000	          0.00000000	          0.00000000	          0.00000000	          6.74664292	          0.00000000	
          2.09200000	          0.00000000	          0.00000000	          0.00000000	          0.00000000	          0.00000000	          0.00000000	        -27.29986688	        847.76807674	        -63.67486479	          0.40122609	          0.00000000	          0.11212288	          0.00000000	          0.00000000	          0.00000000	          0.00000000	          6.68830073	          0.00000000	
          2.09300000	          0.00000000	          0.00000000	          0.00000000	          0.00000000	          0.00000000	          0.00000000	        -27.04902637	        846.50719048	        -63.35633207	          0.40159713	          0.00000000	          0.11217336	          0.00000000	          0.00000000	          0.00000000	          0.00000000	          6.63322236	          0.00000000	
          2.09400000	          0.00000000	          0.00000000	          0.00000000	          0.00000000	          0.00000000	          0.00000000	        -26.79727949	        845.31877022	        -63.04563837	          0.40196440	          0.00000000	          0.11224378	          0.00000000	          0.00000000	          0.00000000	          0.00000000	          6.58850104	          0.00000000	
          2.09500000	          0.00000000	          0.00000000	          0.00000000	          0.00000000	          0.00000000	          0.00000000	        -26.54365919	        844.20477570	        -62.73880125	          0.40230513	          0.00000000	          0.11233799	          0.00000000	          0.00000000	          0.00000000	          0.00000000	          6.55342569	          0.00000000	
          2.09600000	          0.00000000	          0.00000000	          0.00000000	          0.00000000	          0.00000000	          0.00000000	        -26.28890575	        843.15768132	        -62.43467898	          0.40259695	          0.00000000	          0.11245187	          0.00000000	          0.00000000	          0.00000000	          0.00000000	          6.52179990	          0.00000000	
          2.09700000	          0.00000000	          0.00000000	          0.00000000	          0.00000000	          0.00000000	          0.00000000	        -26.03488319	        842.18680077	        -62.13068399	          0.40283926	          0.00000000	          0.11258375	          0.00000000	          0.00000000	          0.00000000	          0.00000000	          6.48724988	          0.00000000	
          2.09800000	          0.00000000	          0.00000000	          0.00000000	          0.00000000	          0.00000000	          0.00000000	        -25.78455340	        841.29646736	        -61.82180151	          0.40306290	          0.00000000	          0.11272850	          0.00000000	          0.00000000	          0.00000000	          0.00000000	          6.44790672	          0.00000000	
          2.09900000	          0.00000000	          0.00000000	          0.00000000	          0.00000000	          0.00000000	          0.00000000	        -25.53898231	        840.45121218	        -61.50802667	          0.40331850	          0.00000000	          0.11286660	          0.00000000	          0.00000000	          0.00000000	          0.00000000	          6.40584543	          0.00000000	
